<?xml version="1.0" encoding="utf-8"?>
<!-- Generator: Adobe Illustrator 14.0.0, SVG Export Plug-In  -->
<!DOCTYPE svg PUBLIC "-//W3C//DTD SVG 1.1//EN" "http://www.w3.org/Graphics/SVG/1.1/DTD/svg11.dtd" [
	<!ENTITY ns_flows "http://ns.adobe.com/Flows/1.0/">
]>
<svg version="1.1"
	 xmlns="http://www.w3.org/2000/svg" xmlns:xlink="http://www.w3.org/1999/xlink" xmlns:a="http://ns.adobe.com/AdobeSVGViewerExtensions/3.0/"
	 x="0px" y="0px" width="34px" height="34px" viewBox="-8.504 -8.461 34 34" enable-background="new -8.504 -8.461 34 34"
	 xml:space="preserve">
<defs>
</defs>
<path display="none" fill="#FFFFFF" d="M17.037,4.094c-0.626,0.278-1.301,0.466-2.007,0.551c0.722-0.433,1.276-1.118,1.537-1.934
	c-0.676,0.4-1.423,0.69-2.22,0.847c-0.636-0.679-1.545-1.104-2.551-1.104c-1.929,0-3.494,1.566-3.494,3.496
	c0,0.274,0.03,0.54,0.09,0.796C5.486,6.6,2.911,5.21,1.186,3.093c-0.301,0.519-0.473,1.119-0.473,1.76
	c0,1.211,0.617,2.282,1.555,2.909C1.695,7.744,1.156,7.586,0.684,7.325v0.043c0,1.694,1.205,3.107,2.805,3.428
	c-0.293,0.082-0.602,0.123-0.921,0.123c-0.225,0-0.445-0.021-0.657-0.062c0.444,1.388,1.735,2.399,3.265,2.427
	c-1.196,0.938-2.704,1.496-4.341,1.496c-0.282,0-0.561-0.016-0.834-0.048c1.547,0.991,3.384,1.57,5.358,1.57
	c6.43,0,9.945-5.326,9.945-9.947c0-0.151-0.003-0.303-0.009-0.452C15.977,5.41,16.57,4.795,17.037,4.094"/>
<path fill="#FFFFFF" d="M4.42,5.67h1.758V3.961c0-0.754,0.019-1.916,0.566-2.636c0.577-0.763,1.368-1.281,2.729-1.281
	c2.218,0,3.152,0.316,3.152,0.316l-0.439,2.605c0,0-0.733-0.212-1.417-0.212c-0.684,0-1.296,0.245-1.296,0.929V5.67h2.804
	l-0.196,2.545H9.474v8.841H6.178V8.215H4.42V5.67z"/>
<path display="none" fill="#FFFFFF" d="M5.696,16.169c-2.022,0-3.482-1.279-3.482-2.817c0-1.507,1.812-2.762,3.833-2.739
	c0.472,0.005,0.912,0.081,1.311,0.21c1.097,0.764,1.884,1.194,2.106,2.064c0.042,0.177,0.065,0.357,0.065,0.543
	C9.529,14.968,8.539,16.169,5.696,16.169 M6.227,7.152C4.871,7.111,3.58,5.634,3.346,3.852C3.112,2.069,4.022,0.705,5.379,0.745
	C6.735,0.786,8.026,2.216,8.26,3.998S7.584,7.193,6.227,7.152 M9.041,9.792C8.564,9.454,7.655,8.635,7.655,8.153
	c0-0.565,0.161-0.843,1.011-1.508c0.871-0.681,1.488-1.638,1.488-2.751c0-1.325-0.59-2.616-1.698-3.043h1.67L11.304,0H6.037
	C3.676,0,1.453,1.789,1.453,3.861c0,2.118,1.61,3.828,4.012,3.828c0.167,0,0.329-0.004,0.488-0.015
	C5.798,7.973,5.686,8.31,5.686,8.657c0,0.589,0.317,1.067,0.717,1.457c-0.303,0-0.595,0.009-0.913,0.009
	c-2.925,0-5.177,1.862-5.177,3.795c0,1.902,2.468,3.093,5.393,3.093c3.334,0,5.177-1.893,5.177-3.795
	C10.883,11.689,10.433,10.775,9.041,9.792 M16.705,7.308h-2.051V5.257h-1.65v2.051h-2.05v1.65h2.05v2.051h1.65V8.958h2.051V7.308z"
	/>
</svg>
