<?xml version="1.0" encoding="utf-8"?>
<!-- Generator: Adobe Illustrator 14.0.0, SVG Export Plug-In  -->
<!DOCTYPE svg PUBLIC "-//W3C//DTD SVG 1.1//EN" "http://www.w3.org/Graphics/SVG/1.1/DTD/svg11.dtd" [
	<!ENTITY ns_flows "http://ns.adobe.com/Flows/1.0/">
]>
<svg version="1.1"
	 xmlns="http://www.w3.org/2000/svg" xmlns:xlink="http://www.w3.org/1999/xlink" xmlns:a="http://ns.adobe.com/AdobeSVGViewerExtensions/3.0/"
	 x="0px" y="0px" width="396px" height="83px" viewBox="-20.606 -7.603 396 83" enable-background="new -20.606 -7.603 396 83"
	 xml:space="preserve">
<defs>
</defs>
<path fill="#FFFFFF" d="M59.413,7.45c-4.36-4.376-24.93-0.055-24.93-0.055l-4.187,3.951l-3.893-3.958c0,0-19.854-4.412-24.23-0.053
	c-4.566,4.546-0.521,25.776-0.521,25.776l3.081,3.063L1.641,39.29c0,0-4.018,21.227,0.531,25.792
	c4.392,4.406,24.116,0.069,24.116,0.069l3.934-4.368l4.187,4.333c0,0,20.488,4.438,24.897,0.047
	c4.221-4.202,0.044-23.828,0.044-23.828l-5.017-5.042l5.035-5.017C59.369,31.276,63.618,11.67,59.413,7.45z M48.72,54.503
	c-1.816,1.76-4.197,2.724-6.711,2.724c0,0,0,0,0,0c-2.578,0-4.988-1.007-6.786-2.835c-2.693-2.742-3.479-6.826-2.002-10.405
	c0.468-1.073-0.23-2.783-2.127-5.245l-0.85-0.845l-0.583,0.582c-2.735,3.194-4.22,6.631-3.823,8.912l0.013,0.107
	c0.157,2.436-0.726,4.792-2.424,6.464c-1.524,1.499-3.557,2.324-5.723,2.324c-2.223,0-4.313-0.856-5.885-2.41
	c-3.108-3.245-3.032-8.418,0.151-11.551c1.672-1.639,4.108-2.504,6.497-2.325l0.113,0.015c2.274,0.433,5.7-0.865,9.104-3.444
	l0.618-0.605l-1.886-1.876c-2.496-2.077-5.054-3.12-6.972-2.788l-0.108,0.013c-2.017,0.129-4.046-0.636-5.435-2.05
	c-2.646-2.69-2.624-7.089,0.051-9.806c1.303-1.249,2.993-1.925,4.778-1.925c1.884,0,3.652,0.74,4.977,2.083
	c1.408,1.441,2.119,3.436,1.953,5.478l-0.014,0.103c-0.339,1.815,0.574,4.068,2.874,7.086l1.739,1.767l0.826-0.809
	c0.71-0.979,2.625-3.673,2.004-5.152c-1.414-3.619-0.562-7.676,2.162-10.358c1.789-1.755,4.157-2.72,6.668-2.72
	c2.563,0,4.97,0.997,6.78,2.808c3.652,3.772,3.591,9.807-0.126,13.462c-1.787,1.753-4.166,2.717-6.701,2.717
	c-1.27,0-2.502-0.243-3.663-0.722c-1.163-0.503-3.238,0.26-5.05,1.706l-1,1l0.769,0.781c2.53,1.81,4.433,2.538,5.493,2.096
	c1.145-0.45,2.335-0.674,3.556-0.674c2.605,0,5.032,1.008,6.832,2.838C52.478,44.747,52.439,50.794,48.72,54.503z"/>
<path fill="#FFFFFF" d="M137.361,19.605v37.387c0,4.596,8.461,4.596,8.461,4.596V24.195
	C145.822,18.834,143.423,19.605,137.361,19.605z"/>
<path fill="#FFFFFF" d="M139.777,12.836h5.967V6.709c0-0.961-1.369-2.014-2.338-2.014h-6.045V10.9
	C137.361,11.945,138.57,12.836,139.777,12.836z"/>
<path fill="#FFFFFF" d="M202.111,19.447c-9.109,0-13.139,3.141-13.943,3.863c-2.738-2.736-7.816-3.863-12.408-3.863
	c-4.516,0-8.301,1.768-12.333,1.768c-2.736,0-5.881-1.607-5.881-1.607v37.629c0,4.596,8.46,4.596,8.46,4.596V27.504
	c0,0,3.627-1.447,8.625-1.447c6.445,0,8.785,2.332,8.785,7.25v23.93c0,4.512,8.459,4.596,8.459,4.596V32.018
	c0.08-3.629,4.594-6.045,9.186-6.045c4.996,0,8.225,2.256,8.225,7.652v23.611c0,4.436,8.457,4.596,8.457,4.596v-29.25
	C217.742,23.473,210.246,19.447,202.111,19.447z"/>
<path fill="#FFFFFF" d="M256.113,0v16.682c0,3.789,0.723,6.045,0.723,6.045s-3.307-3.789-11.525-3.789
	c-8.055,0-15.066,4.992-15.066,13.295v16.115c0,8.539,6.203,13.379,17.082,13.379c3.709,0,7.494-1.373,11.279-1.373
	c1.777,0,4.031,0.246,5.965,1.131V5.398C264.57-0.082,256.594,0,256.113,0z M256.113,53.83c0,0-2.986,1.447-7.822,1.447
	c-7.492,0-9.588-2.66-9.588-8.141V33.438c0-5.641,3.229-8.059,7.658-8.059c4.834,0,9.752,2.98,9.752,7.256V53.83z"/>
<path fill="#FFFFFF" d="M294.609,55.27c-6.77,0-9.506-2.66-9.506-7.896v-4.43c2.172,1.205,5.555,1.691,8.217,1.691
	c12.248,0,16.52-5.885,16.52-12.57c0-7.654-5.561-12.73-16.438-12.73c-10.883,0-16.762,5.076-16.762,13.539v15.711
	c0,8.463,6.771,13.539,17.969,13.539c8.621,0,15.713-3.385,15.713-9.109c0-1.852-0.727-3.865-2.258-6.121
	C307.986,52.129,302.346,55.27,294.609,55.27z M285.104,34.078c0-5.238,1.689-8.303,8.135-8.303c5.965,0,8.141,2.584,8.141,6.289
	c0,3.629-2.336,5.717-9.107,5.717c-2.898,0-6.77-0.959-7.168-1.127V34.078z"/>
<path fill="#FFFFFF" d="M344.758,46.039c-1.936-3.307-5.666-5.586-5.666-5.586s3.975-2.074,5.666-4.971l5.883-9.912
	c1.125-1.852,1.771-3.146,3.547-5.404c0,0-2.5-0.396-3.947-0.396c-2.18,0-5.641,0.801-7.66,4.109l-7.643,13.545L328.4,23.879
	c-2.016-3.309-5.48-4.109-7.654-4.109c-1.449,0-3.951,0.396-3.951,0.396c1.771,2.258,2.418,3.553,3.545,5.404l5.889,9.912
	c1.688,2.896,5.029,4.818,5.029,4.818s-3.102,2.432-5.029,5.738l-5.643,9.508c-1.373,2.332-2.02,3.621-3.791,5.801
	c0,0,2.502,0.404,3.951,0.404c2.174,0,5.879-0.725,7.813-4.111l6.93-11.846l6.934,11.846c1.934,3.387,5.639,4.111,7.818,4.111
	c1.447,0,3.947-0.404,3.947-0.404c-1.775-2.18-2.422-3.469-3.787-5.801L344.758,46.039z"/>
<path fill="#FFFFFF" d="M117.921,45.961c-1.93-3.309-5.529-6.367-5.529-6.367l-0.617-0.451c1.119-0.473,3.68-1.75,4.98-3.979
	l5.883-9.91c1.129-1.852,1.771-3.146,3.549-5.404c0,0-2.5-0.396-3.949-0.396c-2.182,0-5.643,0.801-7.658,4.109l-6.551,11.018
	l-0.42,0.416l-6.043-11.197c-2.016-3.309-5.48-4.109-7.658-4.109c-1.451,0-3.947,0.398-3.947,0.398
	c1.771,2.256,2.42,3.551,3.545,5.404l5.881,9.91c0.84,1.438,2.561,2.816,3.955,3.838c-0.969,1.193-10.482,12.869-13.99,14.514
	c-2.451,1.148-8.699,0.793-8.584-5.561c0,0-2.93,8.688,0.84,12.727c4.248,4.555,9.945,3.779,15.252-0.926
	c5.369-4.764,9.088-13.916,10.35-16.461l1.449,2.184l6.928,11.846c1.934,3.385,5.643,4.109,7.814,4.109
	c1.453,0,3.949-0.404,3.949-0.404c-1.773-2.18-2.418-3.469-3.789-5.801L117.921,45.961z"/>
</svg>
